{
	"patcher" : 	{
		"fileversion" : 1,
		"appversion" : 		{
			"major" : 8,
			"minor" : 1,
			"revision" : 11,
			"architecture" : "x64",
			"modernui" : 1
		}
,
		"classnamespace" : "box",
		"rect" : [ -1201.0, 514.0, 1074.0, 623.0 ],
		"bglocked" : 0,
		"openinpresentation" : 0,
		"default_fontsize" : 12.0,
		"default_fontface" : 0,
		"default_fontname" : "Arial",
		"gridonopen" : 1,
		"gridsize" : [ 15.0, 15.0 ],
		"gridsnaponopen" : 1,
		"objectsnaponopen" : 1,
		"statusbarvisible" : 2,
		"toolbarvisible" : 1,
		"lefttoolbarpinned" : 0,
		"toptoolbarpinned" : 0,
		"righttoolbarpinned" : 0,
		"bottomtoolbarpinned" : 0,
		"toolbars_unpinned_last_save" : 2,
		"tallnewobj" : 0,
		"boxanimatetime" : 200,
		"enablehscroll" : 1,
		"enablevscroll" : 1,
		"devicewidth" : 0.0,
		"description" : "",
		"digest" : "",
		"tags" : "",
		"style" : "",
		"subpatcher_template" : "",
		"assistshowspatchername" : 0,
		"boxes" : [ 			{
				"box" : 				{
					"id" : "obj-49",
					"maxclass" : "message",
					"numinlets" : 2,
					"numoutlets" : 1,
					"outlettype" : [ "" ],
					"patching_rect" : [ 524.0, 34.0, 29.5, 22.0 ],
					"text" : "0"
				}

			}
, 			{
				"box" : 				{
					"id" : "obj-47",
					"maxclass" : "message",
					"numinlets" : 2,
					"numoutlets" : 1,
					"outlettype" : [ "" ],
					"patching_rect" : [ 491.0, 34.0, 29.5, 22.0 ],
					"text" : "20"
				}

			}
, 			{
				"box" : 				{
					"id" : "obj-43",
					"maxclass" : "newobj",
					"numinlets" : 1,
					"numoutlets" : 1,
					"outlettype" : [ "bang" ],
					"patching_rect" : [ 491.0, 10.0, 58.0, 22.0 ],
					"text" : "loadbang"
				}

			}
, 			{
				"box" : 				{
					"format" : 6,
					"id" : "obj-46",
					"maxclass" : "flonum",
					"numinlets" : 1,
					"numoutlets" : 2,
					"outlettype" : [ "", "bang" ],
					"parameter_enable" : 0,
					"patching_rect" : [ 159.0, 110.0, 50.0, 22.0 ]
				}

			}
, 			{
				"box" : 				{
					"id" : "obj-44",
					"maxclass" : "newobj",
					"numinlets" : 2,
					"numoutlets" : 1,
					"outlettype" : [ "float" ],
					"patching_rect" : [ 145.0, 151.0, 33.0, 22.0 ],
					"text" : "* 20."
				}

			}
, 			{
				"box" : 				{
					"fontsize" : 9.0,
					"id" : "obj-41",
					"maxclass" : "newobj",
					"numinlets" : 6,
					"numoutlets" : 1,
					"outlettype" : [ "" ],
					"patching_rect" : [ 410.5, 116.5, 75.0, 19.0 ],
					"text" : "scale 0. 1. 0 127"
				}

			}
, 			{
				"box" : 				{
					"fontname" : "Lato Regular",
					"fontsize" : 8.0,
					"id" : "obj-42",
					"maxclass" : "newobj",
					"numinlets" : 0,
					"numoutlets" : 1,
					"outlettype" : [ "" ],
					"patching_rect" : [ 410.5, 98.5, 67.0, 18.0 ],
					"text" : "r eventExtraPar4"
				}

			}
, 			{
				"box" : 				{
					"fontname" : "Lato Regular",
					"fontsize" : 8.0,
					"id" : "obj-40",
					"maxclass" : "newobj",
					"numinlets" : 0,
					"numoutlets" : 1,
					"outlettype" : [ "" ],
					"patching_rect" : [ 768.933326780796051, 305.5, 61.0, 18.0 ],
					"text" : "r eventVelocity"
				}

			}
, 			{
				"box" : 				{
					"fontsize" : 9.0,
					"id" : "obj-3",
					"maxclass" : "newobj",
					"numinlets" : 6,
					"numoutlets" : 1,
					"outlettype" : [ "" ],
					"patching_rect" : [ 941.961538461538339, 432.0, 75.0, 19.0 ],
					"text" : "scale 0. 1. 0 127"
				}

			}
, 			{
				"box" : 				{
					"fontname" : "Lato Regular",
					"fontsize" : 8.0,
					"id" : "obj-10",
					"maxclass" : "newobj",
					"numinlets" : 0,
					"numoutlets" : 1,
					"outlettype" : [ "" ],
					"patching_rect" : [ 941.961538461538339, 414.0, 67.0, 18.0 ],
					"text" : "r eventExtraPar7"
				}

			}
, 			{
				"box" : 				{
					"fontsize" : 9.0,
					"id" : "obj-37",
					"maxclass" : "newobj",
					"numinlets" : 6,
					"numoutlets" : 1,
					"outlettype" : [ "" ],
					"patching_rect" : [ 922.0, 352.0, 75.0, 19.0 ],
					"text" : "scale 0. 1. 0 127"
				}

			}
, 			{
				"box" : 				{
					"fontname" : "Lato Regular",
					"fontsize" : 8.0,
					"id" : "obj-38",
					"maxclass" : "newobj",
					"numinlets" : 0,
					"numoutlets" : 1,
					"outlettype" : [ "" ],
					"patching_rect" : [ 922.0, 334.0, 67.0, 18.0 ],
					"text" : "r eventExtraPar8"
				}

			}
, 			{
				"box" : 				{
					"format" : 6,
					"id" : "obj-39",
					"maxclass" : "flonum",
					"numinlets" : 1,
					"numoutlets" : 2,
					"outlettype" : [ "", "bang" ],
					"parameter_enable" : 0,
					"patching_rect" : [ 922.0, 371.5, 50.0, 22.0 ]
				}

			}
, 			{
				"box" : 				{
					"fontsize" : 9.0,
					"id" : "obj-35",
					"maxclass" : "newobj",
					"numinlets" : 6,
					"numoutlets" : 1,
					"outlettype" : [ "" ],
					"patching_rect" : [ 913.499999999999886, 204.0, 80.0, 19.0 ],
					"text" : "scale 0. 1. 0 1000"
				}

			}
, 			{
				"box" : 				{
					"fontname" : "Lato Regular",
					"fontsize" : 8.0,
					"id" : "obj-36",
					"maxclass" : "newobj",
					"numinlets" : 0,
					"numoutlets" : 1,
					"outlettype" : [ "" ],
					"patching_rect" : [ 913.499999999999886, 186.0, 67.0, 18.0 ],
					"text" : "r eventExtraPar3"
				}

			}
, 			{
				"box" : 				{
					"fontsize" : 9.0,
					"id" : "obj-17",
					"maxclass" : "newobj",
					"numinlets" : 6,
					"numoutlets" : 1,
					"outlettype" : [ "" ],
					"patching_rect" : [ 893.538461538461547, 124.0, 80.0, 19.0 ],
					"text" : "scale 0. 1. 0 1000"
				}

			}
, 			{
				"box" : 				{
					"fontname" : "Lato Regular",
					"fontsize" : 8.0,
					"id" : "obj-16",
					"maxclass" : "newobj",
					"numinlets" : 0,
					"numoutlets" : 1,
					"outlettype" : [ "" ],
					"patching_rect" : [ 893.538461538461547, 106.0, 67.0, 18.0 ],
					"text" : "r eventExtraPar2"
				}

			}
, 			{
				"box" : 				{
					"format" : 6,
					"id" : "obj-11",
					"maxclass" : "flonum",
					"numinlets" : 1,
					"numoutlets" : 2,
					"outlettype" : [ "", "bang" ],
					"parameter_enable" : 0,
					"patching_rect" : [ 922.0, 234.0, 50.0, 22.0 ]
				}

			}
, 			{
				"box" : 				{
					"format" : 6,
					"id" : "obj-8",
					"maxclass" : "flonum",
					"numinlets" : 1,
					"numoutlets" : 2,
					"outlettype" : [ "", "bang" ],
					"parameter_enable" : 0,
					"patching_rect" : [ 893.538461538461547, 143.5, 50.0, 22.0 ]
				}

			}
, 			{
				"box" : 				{
					"fontname" : "Lato Regular",
					"fontsize" : 8.0,
					"id" : "obj-14",
					"maxclass" : "newobj",
					"numinlets" : 0,
					"numoutlets" : 1,
					"outlettype" : [ "" ],
					"patching_rect" : [ 197.538461538461547, 134.0, 67.0, 18.0 ],
					"text" : "r eventExtraPar1"
				}

			}
, 			{
				"box" : 				{
					"fontsize" : 9.0,
					"id" : "obj-34",
					"maxclass" : "newobj",
					"numinlets" : 6,
					"numoutlets" : 1,
					"outlettype" : [ "" ],
					"patching_rect" : [ 285.0, 120.0, 109.0, 19.0 ],
					"text" : "scale 1200. 11200. 0 127"
				}

			}
, 			{
				"box" : 				{
					"fontname" : "Lato Regular",
					"fontsize" : 8.0,
					"id" : "obj-24",
					"maxclass" : "newobj",
					"numinlets" : 0,
					"numoutlets" : 1,
					"outlettype" : [ "" ],
					"patching_rect" : [ 285.0, 98.5, 53.0, 18.0 ],
					"text" : "r eventCents"
				}

			}
, 			{
				"box" : 				{
					"fontsize" : 9.0,
					"id" : "obj-23",
					"maxclass" : "newobj",
					"numinlets" : 6,
					"numoutlets" : 1,
					"outlettype" : [ "" ],
					"patching_rect" : [ 491.000000000000114, 134.0, 75.0, 19.0 ],
					"text" : "scale 0. 1. 0 400"
				}

			}
, 			{
				"box" : 				{
					"fontname" : "Lato Regular",
					"fontsize" : 8.0,
					"id" : "obj-22",
					"maxclass" : "newobj",
					"numinlets" : 0,
					"numoutlets" : 1,
					"outlettype" : [ "" ],
					"patching_rect" : [ 491.000000000000114, 110.0, 67.0, 18.0 ],
					"text" : "r eventExtraPar5"
				}

			}
, 			{
				"box" : 				{
					"fontname" : "Lato Regular",
					"fontsize" : 8.0,
					"id" : "obj-7",
					"maxclass" : "newobj",
					"numinlets" : 0,
					"numoutlets" : 1,
					"outlettype" : [ "" ],
					"patching_rect" : [ 13.0, 120.5, 64.0, 18.0 ],
					"text" : "r eventDuration"
				}

			}
, 			{
				"box" : 				{
					"id" : "obj-4",
					"maxclass" : "button",
					"numinlets" : 1,
					"numoutlets" : 1,
					"outlettype" : [ "bang" ],
					"parameter_enable" : 0,
					"patching_rect" : [ 13.0, 143.5, 24.0, 24.0 ]
				}

			}
, 			{
				"box" : 				{
					"fontname" : "Lato",
					"fontsize" : 13.0,
					"hidden" : 1,
					"id" : "obj-1",
					"maxclass" : "message",
					"numinlets" : 2,
					"numoutlets" : 1,
					"outlettype" : [ "" ],
					"patching_rect" : [ 623.0, 282.0, 66.0, 24.0 ],
					"text" : "size 1000"
				}

			}
, 			{
				"box" : 				{
					"fontname" : "Lato",
					"fontsize" : 13.0,
					"id" : "obj-31",
					"linecount" : 5,
					"maxclass" : "comment",
					"numinlets" : 1,
					"numoutlets" : 0,
					"patching_rect" : [ 606.0, 514.5, 252.0, 84.0 ],
					"text" : "You can use this pattrstorage system  to store useful settings, (independent of the sample), or just put the \"rgrano.maxpat\" in your patch to have the pattr parameters automatically available. ",
					"textcolor" : [ 0.501961, 0.501961, 0.501961, 1.0 ]
				}

			}
, 			{
				"box" : 				{
					"fontname" : "Lato",
					"fontsize" : 13.0,
					"id" : "obj-30",
					"linecount" : 3,
					"maxclass" : "comment",
					"numinlets" : 1,
					"numoutlets" : 0,
					"patching_rect" : [ 623.0, 220.0, 227.0, 53.0 ],
					"text" : "To play a single grain, turn grains OFF, and send a bang into the left inlet (useful for rhythmic playback).",
					"textcolor" : [ 0.501961, 0.501961, 0.501961, 1.0 ]
				}

			}
, 			{
				"box" : 				{
					"fontname" : "Lato",
					"fontsize" : 13.0,
					"id" : "obj-28",
					"linecount" : 3,
					"maxclass" : "comment",
					"numinlets" : 1,
					"numoutlets" : 0,
					"patching_rect" : [ 623.0, 163.0, 227.0, 53.0 ],
					"text" : "For linear playback, turn grains ON, set the speed, and click the \"play\" button.",
					"textcolor" : [ 0.501961, 0.501961, 0.501961, 1.0 ]
				}

			}
, 			{
				"box" : 				{
					"fontname" : "Lato",
					"fontsize" : 13.0,
					"id" : "obj-27",
					"maxclass" : "comment",
					"numinlets" : 1,
					"numoutlets" : 0,
					"patching_rect" : [ 623.0, 136.0, 227.0, 22.0 ],
					"text" : "For normal operation, turn grains ON.",
					"textcolor" : [ 0.501961, 0.501961, 0.501961, 1.0 ]
				}

			}
, 			{
				"box" : 				{
					"bubble" : 1,
					"bubbleside" : 2,
					"fontname" : "Lato",
					"fontsize" : 13.0,
					"id" : "obj-26",
					"linecount" : 2,
					"maxclass" : "comment",
					"numinlets" : 1,
					"numoutlets" : 0,
					"patching_rect" : [ 606.0, 408.0, 265.0, 57.0 ],
					"text" : "The rgrano abstraction takes one argument, the name of the sound file."
				}

			}
, 			{
				"box" : 				{
					"bubble" : 1,
					"fontname" : "Lato",
					"fontsize" : 13.0,
					"id" : "obj-25",
					"maxclass" : "comment",
					"numinlets" : 1,
					"numoutlets" : 0,
					"patching_rect" : [ 169.0, 494.0, 94.0, 26.0 ],
					"text" : "Start Audio"
				}

			}
, 			{
				"box" : 				{
					"fontname" : "Lato",
					"fontsize" : 13.0,
					"id" : "obj-21",
					"linecount" : 2,
					"maxclass" : "comment",
					"numinlets" : 1,
					"numoutlets" : 0,
					"patching_rect" : [ 13.0, 67.5, 862.0, 38.0 ],
					"text" : "Granular synthesis is a form of sampling in which the sample is played often but with very short durations (ca. 100ms). This provides one way of doing time stretching and transposition without pitch change. It's also useful for exploring a sound's tonal content without its rhythmic structure.",
					"textcolor" : [ 0.501961, 0.501961, 0.501961, 1.0 ]
				}

			}
, 			{
				"box" : 				{
					"border" : 0,
					"filename" : "helpdetails.js",
					"id" : "obj-5",
					"ignoreclick" : 1,
					"jsarguments" : [ "granularized" ],
					"maxclass" : "jsui",
					"numinlets" : 1,
					"numoutlets" : 1,
					"outlettype" : [ "" ],
					"parameter_enable" : 0,
					"patching_rect" : [ 13.0, 1.5, 404.0, 65.0 ]
				}

			}
, 			{
				"box" : 				{
					"fontname" : "Lato",
					"fontsize" : 13.0,
					"hidden" : 1,
					"id" : "obj-29",
					"maxclass" : "message",
					"numinlets" : 2,
					"numoutlets" : 1,
					"outlettype" : [ "" ],
					"patching_rect" : [ 623.0, 311.0, 47.0, 24.0 ],
					"text" : "set $1"
				}

			}
, 			{
				"box" : 				{
					"fontname" : "Lato",
					"fontsize" : 13.0,
					"hidden" : 1,
					"id" : "obj-33",
					"maxclass" : "newobj",
					"numinlets" : 2,
					"numoutlets" : 2,
					"outlettype" : [ "signal", "signal" ],
					"patching_rect" : [ 635.0, 334.0, 35.0, 24.0 ],
					"text" : "IO"
				}

			}
, 			{
				"box" : 				{
					"hidden" : 1,
					"id" : "obj-32",
					"maxclass" : "toggle",
					"numinlets" : 1,
					"numoutlets" : 1,
					"outlettype" : [ "int" ],
					"parameter_enable" : 0,
					"patching_rect" : [ 603.0, 334.0, 20.0, 20.0 ]
				}

			}
, 			{
				"box" : 				{
					"fontname" : "Lato",
					"fontsize" : 13.0,
					"hidden" : 1,
					"id" : "obj-2",
					"maxclass" : "newobj",
					"numinlets" : 3,
					"numoutlets" : 1,
					"outlettype" : [ "signal" ],
					"patching_rect" : [ 623.0, 366.0, 56.0, 24.0 ],
					"text" : "record~"
				}

			}
, 			{
				"box" : 				{
					"fontname" : "Lato",
					"fontsize" : 13.0,
					"id" : "obj-9",
					"maxclass" : "newobj",
					"numinlets" : 14,
					"numoutlets" : 12,
					"outlettype" : [ "signal", "signal", "int", "", "", "", "", "", "", "", "", "" ],
					"patching_rect" : [ 641.0, 463.0, 195.0, 24.0 ],
					"text" : "rgrano.maxpat drumLoop.aif",
					"varname" : "regular-version"
				}

			}
, 			{
				"box" : 				{
					"fontname" : "Lato",
					"fontsize" : 12.0,
					"id" : "obj-20",
					"maxclass" : "newobj",
					"numinlets" : 1,
					"numoutlets" : 1,
					"outlettype" : [ "" ],
					"patching_rect" : [ 316.0, 611.0, 200.0, 23.0 ],
					"saved_object_attributes" : 					{
						"client_rect" : [ 1002, 449, 1440, 771 ],
						"parameter_enable" : 0,
						"parameter_mappable" : 0,
						"storage_rect" : [ 562, 72, 1020, 441 ]
					}
,
					"text" : "pattrstorage Untitled @savemode 0",
					"varname" : "Untitled"
				}

			}
, 			{
				"box" : 				{
					"bgmode" : 1,
					"border" : 1,
					"clickthrough" : 0,
					"enablehscroll" : 0,
					"enablevscroll" : 0,
					"id" : "obj-19",
					"lockeddragscroll" : 0,
					"maxclass" : "bpatcher",
					"name" : "pattr-helper.maxpat",
					"numinlets" : 1,
					"numoutlets" : 1,
					"offset" : [ -4.0, -6.0 ],
					"outlettype" : [ "" ],
					"patching_rect" : [ 316.0, 509.0, 278.0, 90.0 ],
					"presentation" : 1,
					"presentation_rect" : [ 175.0, 390.0, 311.0, 131.0 ],
					"varname" : "pattr-helper",
					"viewvisibility" : 1
				}

			}
, 			{
				"box" : 				{
					"bgcolor" : [ 0.866667, 0.866667, 0.866667, 1.0 ],
					"fontname" : "Lato",
					"fontsize" : 13.0,
					"htricolor" : [ 0.87, 0.82, 0.24, 1.0 ],
					"id" : "obj-6",
					"maxclass" : "number",
					"numinlets" : 1,
					"numoutlets" : 2,
					"outlettype" : [ "", "bang" ],
					"parameter_enable" : 0,
					"patching_rect" : [ 82.0, 134.0, 39.0, 24.0 ],
					"textcolor" : [ 0.0, 0.0, 0.0, 1.0 ],
					"tricolor" : [ 0.75, 0.75, 0.75, 1.0 ],
					"triscale" : 0.9
				}

			}
, 			{
				"box" : 				{
					"bgmode" : 1,
					"border" : 1,
					"clickthrough" : 0,
					"enablehscroll" : 0,
					"enablevscroll" : 0,
					"id" : "obj-12",
					"lockeddragscroll" : 1,
					"maxclass" : "bpatcher",
					"name" : "IO.maxpat",
					"numinlets" : 2,
					"numoutlets" : 2,
					"offset" : [ -109.0, -3.0 ],
					"outlettype" : [ "signal", "signal" ],
					"patching_rect" : [ 13.0, 479.0, 149.0, 159.0 ],
					"presentation" : 1,
					"presentation_rect" : [ 5.0, 386.0, 155.0, 146.0 ],
					"viewvisibility" : 1
				}

			}
, 			{
				"box" : 				{
					"fontname" : "Lato",
					"fontsize" : 13.0,
					"id" : "obj-18",
					"linecount" : 2,
					"maxclass" : "comment",
					"numinlets" : 1,
					"numoutlets" : 0,
					"patching_rect" : [ 82.0, 96.0, 63.0, 38.0 ],
					"text" : "number of voices"
				}

			}
, 			{
				"box" : 				{
					"args" : [ "anton.aif" ],
					"bgmode" : 1,
					"border" : 1,
					"clickthrough" : 0,
					"enablehscroll" : 0,
					"enablevscroll" : 0,
					"hint" : "Copy this bpatcher into your patch for instant granularity.",
					"id" : "obj-13",
					"lockeddragscroll" : 1,
					"maxclass" : "bpatcher",
					"name" : "rgrano.maxpat",
					"numinlets" : 14,
					"numoutlets" : 12,
					"offset" : [ -309.0, -180.0 ],
					"outlettype" : [ "signal", "signal", "int", "", "", "", "", "", "", "", "", "" ],
					"patching_rect" : [ 34.0, 186.0, 570.0, 292.0 ],
					"presentation" : 1,
					"presentation_rect" : [ 5.0, 88.0, 572.0, 290.0 ],
					"varname" : "bpatcher-version",
					"viewvisibility" : 1
				}

			}
, 			{
				"box" : 				{
					"background" : 1,
					"bgcolor" : [ 1.0, 0.788235, 0.470588, 1.0 ],
					"fontface" : 1,
					"fontsize" : 13.0,
					"hint" : "",
					"id" : "obj-93",
					"ignoreclick" : 1,
					"maxclass" : "textbutton",
					"numinlets" : 1,
					"numoutlets" : 3,
					"outlettype" : [ "", "", "int" ],
					"parameter_enable" : 0,
					"patching_rect" : [ 264.0, 496.5, 20.0, 20.0 ],
					"rounded" : 60.0,
					"text" : "1",
					"textcolor" : [ 0.34902, 0.34902, 0.34902, 1.0 ]
				}

			}
, 			{
				"box" : 				{
					"background" : 1,
					"fontname" : "Lato",
					"fontsize" : 9.160197999999999,
					"id" : "obj-15",
					"maxclass" : "comment",
					"numinlets" : 1,
					"numoutlets" : 0,
					"patching_rect" : [ 788.0, 21.0, 60.0, 17.0 ],
					"presentation" : 1,
					"presentation_rect" : [ 717.0, 78.0, 85.0, 17.0 ],
					"text" : "<  & zoax",
					"textcolor" : [ 1.0, 1.0, 1.0, 1.0 ]
				}

			}
 ],
		"lines" : [ 			{
				"patchline" : 				{
					"destination" : [ "obj-13", 13 ],
					"hidden" : 1,
					"source" : [ "obj-1", 0 ]
				}

			}
, 			{
				"patchline" : 				{
					"destination" : [ "obj-3", 0 ],
					"source" : [ "obj-10", 0 ]
				}

			}
, 			{
				"patchline" : 				{
					"destination" : [ "obj-13", 6 ],
					"source" : [ "obj-11", 0 ]
				}

			}
, 			{
				"patchline" : 				{
					"destination" : [ "obj-12", 1 ],
					"midpoints" : [ 93.590909090909093, 471.0, 152.5, 471.0 ],
					"source" : [ "obj-13", 1 ]
				}

			}
, 			{
				"patchline" : 				{
					"destination" : [ "obj-12", 0 ],
					"source" : [ "obj-13", 0 ]
				}

			}
, 			{
				"patchline" : 				{
					"destination" : [ "obj-29", 0 ],
					"hidden" : 1,
					"source" : [ "obj-13", 11 ]
				}

			}
, 			{
				"patchline" : 				{
					"destination" : [ "obj-13", 4 ],
					"source" : [ "obj-14", 0 ]
				}

			}
, 			{
				"patchline" : 				{
					"destination" : [ "obj-17", 0 ],
					"source" : [ "obj-16", 0 ]
				}

			}
, 			{
				"patchline" : 				{
					"destination" : [ "obj-8", 0 ],
					"source" : [ "obj-17", 0 ]
				}

			}
, 			{
				"patchline" : 				{
					"destination" : [ "obj-20", 0 ],
					"source" : [ "obj-19", 0 ]
				}

			}
, 			{
				"patchline" : 				{
					"destination" : [ "obj-23", 0 ],
					"source" : [ "obj-22", 0 ]
				}

			}
, 			{
				"patchline" : 				{
					"destination" : [ "obj-13", 8 ],
					"source" : [ "obj-23", 0 ]
				}

			}
, 			{
				"patchline" : 				{
					"destination" : [ "obj-34", 0 ],
					"source" : [ "obj-24", 0 ]
				}

			}
, 			{
				"patchline" : 				{
					"destination" : [ "obj-2", 0 ],
					"hidden" : 1,
					"source" : [ "obj-29", 0 ]
				}

			}
, 			{
				"patchline" : 				{
					"destination" : [ "obj-13", 10 ],
					"source" : [ "obj-3", 0 ]
				}

			}
, 			{
				"patchline" : 				{
					"destination" : [ "obj-2", 0 ],
					"hidden" : 1,
					"source" : [ "obj-32", 0 ]
				}

			}
, 			{
				"patchline" : 				{
					"destination" : [ "obj-2", 0 ],
					"hidden" : 1,
					"source" : [ "obj-33", 0 ]
				}

			}
, 			{
				"patchline" : 				{
					"destination" : [ "obj-13", 11 ],
					"source" : [ "obj-34", 0 ]
				}

			}
, 			{
				"patchline" : 				{
					"destination" : [ "obj-11", 0 ],
					"source" : [ "obj-35", 0 ]
				}

			}
, 			{
				"patchline" : 				{
					"destination" : [ "obj-35", 0 ],
					"source" : [ "obj-36", 0 ]
				}

			}
, 			{
				"patchline" : 				{
					"destination" : [ "obj-39", 0 ],
					"source" : [ "obj-37", 0 ]
				}

			}
, 			{
				"patchline" : 				{
					"destination" : [ "obj-37", 0 ],
					"source" : [ "obj-38", 0 ]
				}

			}
, 			{
				"patchline" : 				{
					"destination" : [ "obj-13", 9 ],
					"source" : [ "obj-39", 0 ]
				}

			}
, 			{
				"patchline" : 				{
					"destination" : [ "obj-13", 0 ],
					"source" : [ "obj-4", 0 ]
				}

			}
, 			{
				"patchline" : 				{
					"destination" : [ "obj-13", 12 ],
					"source" : [ "obj-41", 0 ]
				}

			}
, 			{
				"patchline" : 				{
					"destination" : [ "obj-41", 0 ],
					"source" : [ "obj-42", 0 ]
				}

			}
, 			{
				"patchline" : 				{
					"destination" : [ "obj-47", 0 ],
					"order" : 1,
					"source" : [ "obj-43", 0 ]
				}

			}
, 			{
				"patchline" : 				{
					"destination" : [ "obj-49", 0 ],
					"order" : 0,
					"source" : [ "obj-43", 0 ]
				}

			}
, 			{
				"patchline" : 				{
					"destination" : [ "obj-13", 7 ],
					"source" : [ "obj-44", 0 ]
				}

			}
, 			{
				"patchline" : 				{
					"destination" : [ "obj-44", 1 ],
					"source" : [ "obj-46", 0 ]
				}

			}
, 			{
				"patchline" : 				{
					"destination" : [ "obj-6", 0 ],
					"source" : [ "obj-47", 0 ]
				}

			}
, 			{
				"patchline" : 				{
					"destination" : [ "obj-13", 3 ],
					"source" : [ "obj-49", 0 ]
				}

			}
, 			{
				"patchline" : 				{
					"destination" : [ "obj-13", 1 ],
					"hidden" : 1,
					"source" : [ "obj-6", 0 ]
				}

			}
, 			{
				"patchline" : 				{
					"destination" : [ "obj-4", 0 ],
					"order" : 1,
					"source" : [ "obj-7", 0 ]
				}

			}
, 			{
				"patchline" : 				{
					"destination" : [ "obj-44", 0 ],
					"order" : 0,
					"source" : [ "obj-7", 0 ]
				}

			}
, 			{
				"patchline" : 				{
					"destination" : [ "obj-13", 5 ],
					"source" : [ "obj-8", 0 ]
				}

			}
 ],
		"dependency_cache" : [ 			{
				"name" : "rgrano.maxpat",
				"bootpath" : "~/Library/Application Support/Cycling '74/Max 8/Examples/sampling/granular/lib",
				"patcherrelativepath" : "../../../../Library/Application Support/Cycling '74/Max 8/Examples/sampling/granular/lib",
				"type" : "JSON",
				"implicit" : 1
			}
, 			{
				"name" : "rgrain.maxpat",
				"bootpath" : "~/Library/Application Support/Cycling '74/Max 8/Examples/sampling/granular/lib",
				"patcherrelativepath" : "../../../../Library/Application Support/Cycling '74/Max 8/Examples/sampling/granular/lib",
				"type" : "JSON",
				"implicit" : 1
			}
, 			{
				"name" : "rchoose.maxpat",
				"bootpath" : "~/Library/Application Support/Cycling '74/Max 8/Examples/sampling/granular/lib",
				"patcherrelativepath" : "../../../../Library/Application Support/Cycling '74/Max 8/Examples/sampling/granular/lib",
				"type" : "JSON",
				"implicit" : 1
			}
, 			{
				"name" : "transratio.maxpat",
				"bootpath" : "~/Library/Application Support/Cycling '74/Max 8/Examples/max-tricks/notes-and-pitch/pitch-to-freq-ratio",
				"patcherrelativepath" : "../../../../Library/Application Support/Cycling '74/Max 8/Examples/max-tricks/notes-and-pitch/pitch-to-freq-ratio",
				"type" : "JSON",
				"implicit" : 1
			}
, 			{
				"name" : "IO.maxpat",
				"bootpath" : "~/Library/Application Support/Cycling '74/Max 8/Examples/utilities/input_output IO/lib",
				"patcherrelativepath" : "../../../../Library/Application Support/Cycling '74/Max 8/Examples/utilities/input_output IO/lib",
				"type" : "JSON",
				"implicit" : 1
			}
, 			{
				"name" : "pattr-helper.maxpat",
				"bootpath" : "~/Library/Application Support/Cycling '74/Max 8/Examples/utilities",
				"patcherrelativepath" : "../../../../Library/Application Support/Cycling '74/Max 8/Examples/utilities",
				"type" : "JSON",
				"implicit" : 1
			}
, 			{
				"name" : "helpdetails.js",
				"bootpath" : "C74:/help/resources",
				"type" : "TEXT",
				"implicit" : 1
			}
 ],
		"autosave" : 0
	}

}
